<?xml version="1.0" encoding="UTF-8" standalone="no"?>
<!DOCTYPE svg PUBLIC "-//W3C//DTD SVG 1.1//EN"
 "http://www.w3.org/Graphics/SVG/1.1/DTD/svg11.dtd">
<!-- Generated by graphviz version 2.46.0 (20210119.1425)
 -->
<!-- Title: dependencies Pages: 1 -->
<svg width="7790pt" height="284pt"
 viewBox="0.00 0.00 7790.00 284.00" xmlns="http://www.w3.org/2000/svg" xmlns:xlink="http://www.w3.org/1999/xlink">
<g id="graph0" class="graph" transform="scale(1 1) rotate(0) translate(4 280)">
<title>dependencies</title>
<polygon fill="white" stroke="transparent" points="-4,4 -4,-280 7786,-280 7786,4 -4,4"/>
<text text-anchor="start" x="3870.01" y="-42.4" font-family="sans-serif" font-weight="bold" font-size="14.00">Legend</text>
<polygon fill="#ffffb3" stroke="transparent" points="3657,-10 3657,-30 3677,-30 3677,-10 3657,-10"/>
<text text-anchor="start" x="3680.63" y="-15.4" font-family="sans-serif" font-size="14.00"> &#160;Declarations</text>
<polygon fill="#8dd3c7" stroke="transparent" points="3770,-10 3770,-30 3790,-30 3790,-10 3770,-10"/>
<text text-anchor="start" x="3793.73" y="-15.4" font-family="sans-serif" font-size="14.00"> &#160;Module</text>
<polygon fill="#80b1d3" stroke="transparent" points="3856,-10 3856,-30 3876,-30 3876,-10 3856,-10"/>
<text text-anchor="start" x="3879.78" y="-15.4" font-family="sans-serif" font-size="14.00"> &#160;Bootstrap</text>
<polygon fill="#fdb462" stroke="transparent" points="3953,-10 3953,-30 3973,-30 3973,-10 3953,-10"/>
<text text-anchor="start" x="3976.67" y="-15.4" font-family="sans-serif" font-size="14.00"> &#160;Providers</text>
<polygon fill="#fb8072" stroke="transparent" points="4049,-10 4049,-30 4069,-30 4069,-10 4049,-10"/>
<text text-anchor="start" x="4072.73" y="-15.4" font-family="sans-serif" font-size="14.00"> &#160;Exports</text>
<g id="clust1" class="cluster">
<title>cluster_AppModule</title>
<polygon fill="none" stroke="black" stroke-dasharray="1,5" points="8,-70 8,-268 7774,-268 7774,-70 8,-70"/>
</g>
<g id="clust2" class="cluster">
<title>cluster_AppModule_declarations</title>
<polygon fill="none" stroke="black" points="293,-78 293,-130 7766,-130 7766,-78 293,-78"/>
</g>
<g id="clust50" class="cluster">
<title>cluster_AppModule_bootstrap</title>
<polygon fill="none" stroke="black" points="3809,-208 3809,-260 3933,-260 3933,-208 3809,-208"/>
</g>
<g id="clust48" class="cluster">
<title>cluster_AppModule_imports</title>
<polygon fill="none" stroke="black" points="16,-78 16,-130 285,-130 285,-78 16,-78"/>
</g>
<!-- AdminComponent -->
<g id="node1" class="node">
<title>AdminComponent</title>
<polygon fill="#ffffb3" stroke="black" points="7758.22,-122 7637.78,-122 7637.78,-86 7758.22,-86 7758.22,-122"/>
<text text-anchor="middle" x="7698" y="-99.8" font-family="Times,serif" font-size="14.00">AdminComponent</text>
</g>
<!-- AppModule -->
<g id="node46" class="node">
<title>AppModule</title>
<polygon fill="#8dd3c7" stroke="black" points="3912.66,-187 3909.66,-191 3888.66,-191 3885.66,-187 3829.34,-187 3829.34,-151 3912.66,-151 3912.66,-187"/>
<text text-anchor="middle" x="3871" y="-164.8" font-family="Times,serif" font-size="14.00">AppModule</text>
</g>
<!-- AdminComponent&#45;&gt;AppModule -->
<g id="edge1" class="edge">
<title>AdminComponent&#45;&gt;AppModule</title>
<path fill="none" stroke="black" d="M7698,-122.2C7698,-146.36 7698,-186 7698,-186 7698,-186 3922.67,-186 3922.67,-186"/>
<polygon fill="black" stroke="black" points="3922.67,-182.5 3912.67,-186 3922.67,-189.5 3922.67,-182.5"/>
</g>
<!-- AdminMenuComponent -->
<g id="node2" class="node">
<title>AdminMenuComponent</title>
<polygon fill="#ffffb3" stroke="black" points="7619.38,-122 7466.62,-122 7466.62,-86 7619.38,-86 7619.38,-122"/>
<text text-anchor="middle" x="7543" y="-99.8" font-family="Times,serif" font-size="14.00">AdminMenuComponent</text>
</g>
<!-- AdminMenuComponent&#45;&gt;AppModule -->
<g id="edge2" class="edge">
<title>AdminMenuComponent&#45;&gt;AppModule</title>
<path fill="none" stroke="black" d="M7543,-122.15C7543,-145.76 7543,-184 7543,-184 7543,-184 3922.87,-184 3922.87,-184"/>
<polygon fill="black" stroke="black" points="3922.87,-180.5 3912.87,-184 3922.87,-187.5 3922.87,-180.5"/>
</g>
<!-- AdminUsersComponent -->
<g id="node3" class="node">
<title>AdminUsersComponent</title>
<polygon fill="#ffffb3" stroke="black" points="7449.09,-122 7296.91,-122 7296.91,-86 7449.09,-86 7449.09,-122"/>
<text text-anchor="middle" x="7373" y="-99.8" font-family="Times,serif" font-size="14.00">AdminUsersComponent</text>
</g>
<!-- AdminUsersComponent&#45;&gt;AppModule -->
<g id="edge3" class="edge">
<title>AdminUsersComponent&#45;&gt;AppModule</title>
<path fill="none" stroke="black" d="M7373,-122.32C7373,-145.66 7373,-183 7373,-183 7373,-183 3922.77,-183 3922.77,-183"/>
<polygon fill="black" stroke="black" points="3922.77,-179.5 3912.77,-183 3922.77,-186.5 3922.77,-179.5"/>
</g>
<!-- AppComponent -->
<g id="node4" class="node">
<title>AppComponent</title>
<polygon fill="#ffffb3" stroke="black" points="7278.94,-122 7173.06,-122 7173.06,-86 7278.94,-86 7278.94,-122"/>
<text text-anchor="middle" x="7226" y="-99.8" font-family="Times,serif" font-size="14.00">AppComponent</text>
</g>
<!-- AppComponent&#45;&gt;AppModule -->
<g id="edge4" class="edge">
<title>AppComponent&#45;&gt;AppModule</title>
<path fill="none" stroke="black" d="M7226,-122.25C7226,-145.02 7226,-181 7226,-181 7226,-181 3922.81,-181 3922.81,-181"/>
<polygon fill="black" stroke="black" points="3922.81,-177.5 3912.81,-181 3922.81,-184.5 3922.81,-177.5"/>
</g>
<!-- ClientComponent -->
<g id="node5" class="node">
<title>ClientComponent</title>
<polygon fill="#ffffb3" stroke="black" points="7155.56,-122 7040.44,-122 7040.44,-86 7155.56,-86 7155.56,-122"/>
<text text-anchor="middle" x="7098" y="-99.8" font-family="Times,serif" font-size="14.00">ClientComponent</text>
</g>
<!-- ClientComponent&#45;&gt;AppModule -->
<g id="edge5" class="edge">
<title>ClientComponent&#45;&gt;AppModule</title>
<path fill="none" stroke="black" d="M7098,-122.01C7098,-144.49 7098,-180 7098,-180 7098,-180 3922.68,-180 3922.68,-180"/>
<polygon fill="black" stroke="black" points="3922.68,-176.5 3912.68,-180 3922.68,-183.5 3922.68,-176.5"/>
</g>
<!-- ClientDetailsComponent -->
<g id="node6" class="node">
<title>ClientDetailsComponent</title>
<polygon fill="#ffffb3" stroke="black" points="7022.71,-122 6867.29,-122 6867.29,-86 7022.71,-86 7022.71,-122"/>
<text text-anchor="middle" x="6945" y="-99.8" font-family="Times,serif" font-size="14.00">ClientDetailsComponent</text>
</g>
<!-- ClientDetailsComponent&#45;&gt;AppModule -->
<g id="edge6" class="edge">
<title>ClientDetailsComponent&#45;&gt;AppModule</title>
<path fill="none" stroke="black" d="M6945,-122.29C6945,-144.21 6945,-178 6945,-178 6945,-178 3922.71,-178 3922.71,-178"/>
<polygon fill="black" stroke="black" points="3922.71,-174.5 3912.71,-178 3922.71,-181.5 3922.71,-174.5"/>
</g>
<!-- ClientOrderComponent -->
<g id="node7" class="node">
<title>ClientOrderComponent</title>
<polygon fill="#ffffb3" stroke="black" points="6849.2,-122 6700.8,-122 6700.8,-86 6849.2,-86 6849.2,-122"/>
<text text-anchor="middle" x="6775" y="-99.8" font-family="Times,serif" font-size="14.00">ClientOrderComponent</text>
</g>
<!-- ClientOrderComponent&#45;&gt;AppModule -->
<g id="edge7" class="edge">
<title>ClientOrderComponent&#45;&gt;AppModule</title>
<path fill="none" stroke="black" d="M6775,-122.04C6775,-143.66 6775,-177 6775,-177 6775,-177 3922.89,-177 3922.89,-177"/>
<polygon fill="black" stroke="black" points="3922.89,-173.5 3912.89,-177 3922.89,-180.5 3922.89,-173.5"/>
</g>
<!-- ClientsMenuComponent -->
<g id="node8" class="node">
<title>ClientsMenuComponent</title>
<polygon fill="#ffffb3" stroke="black" points="6682.66,-122 6529.34,-122 6529.34,-86 6682.66,-86 6682.66,-122"/>
<text text-anchor="middle" x="6606" y="-99.8" font-family="Times,serif" font-size="14.00">ClientsMenuComponent</text>
</g>
<!-- ClientsMenuComponent&#45;&gt;AppModule -->
<g id="edge8" class="edge">
<title>ClientsMenuComponent&#45;&gt;AppModule</title>
<path fill="none" stroke="black" d="M6606,-122.28C6606,-143.32 6606,-175 6606,-175 6606,-175 3922.87,-175 3922.87,-175"/>
<polygon fill="black" stroke="black" points="3922.87,-171.5 3912.87,-175 3922.87,-178.5 3922.87,-171.5"/>
</g>
<!-- ConfirmOrderComponent -->
<g id="node9" class="node">
<title>ConfirmOrderComponent</title>
<polygon fill="#ffffb3" stroke="black" points="6510.91,-122 6349.09,-122 6349.09,-86 6510.91,-86 6510.91,-122"/>
<text text-anchor="middle" x="6430" y="-99.8" font-family="Times,serif" font-size="14.00">ConfirmOrderComponent</text>
</g>
<!-- ConfirmOrderComponent&#45;&gt;AppModule -->
<g id="edge9" class="edge">
<title>ConfirmOrderComponent&#45;&gt;AppModule</title>
<path fill="none" stroke="black" d="M6430,-122.03C6430,-142.77 6430,-174 6430,-174 6430,-174 3922.76,-174 3922.76,-174"/>
<polygon fill="black" stroke="black" points="3922.76,-170.5 3912.76,-174 3922.76,-177.5 3922.76,-170.5"/>
</g>
<!-- CreateUserComponent -->
<g id="node10" class="node">
<title>CreateUserComponent</title>
<polygon fill="#ffffb3" stroke="black" points="6331.29,-122 6186.71,-122 6186.71,-86 6331.29,-86 6331.29,-122"/>
<text text-anchor="middle" x="6259" y="-99.8" font-family="Times,serif" font-size="14.00">CreateUserComponent</text>
</g>
<!-- CreateUserComponent&#45;&gt;AppModule -->
<g id="edge10" class="edge">
<title>CreateUserComponent&#45;&gt;AppModule</title>
<path fill="none" stroke="black" d="M6259,-122.22C6259,-142.37 6259,-172 6259,-172 6259,-172 3922.7,-172 3922.7,-172"/>
<polygon fill="black" stroke="black" points="3922.7,-168.5 3912.7,-172 3922.7,-175.5 3922.7,-168.5"/>
</g>
<!-- DeleteClientComponent -->
<g id="node11" class="node">
<title>DeleteClientComponent</title>
<polygon fill="#ffffb3" stroke="black" points="6169.09,-122 6016.91,-122 6016.91,-86 6169.09,-86 6169.09,-122"/>
<text text-anchor="middle" x="6093" y="-99.8" font-family="Times,serif" font-size="14.00">DeleteClientComponent</text>
</g>
<!-- DeleteClientComponent&#45;&gt;AppModule -->
<g id="edge11" class="edge">
<title>DeleteClientComponent&#45;&gt;AppModule</title>
<path fill="none" stroke="black" d="M6093,-122.31C6093,-142.15 6093,-171 6093,-171 6093,-171 3922.91,-171 3922.91,-171"/>
<polygon fill="black" stroke="black" points="3922.91,-167.5 3912.91,-171 3922.91,-174.5 3922.91,-167.5"/>
</g>
<!-- DeleteOrderComponent -->
<g id="node12" class="node">
<title>DeleteOrderComponent</title>
<polygon fill="#ffffb3" stroke="black" points="5999.01,-122 5848.99,-122 5848.99,-86 5999.01,-86 5999.01,-122"/>
<text text-anchor="middle" x="5924" y="-99.8" font-family="Times,serif" font-size="14.00">DeleteOrderComponent</text>
</g>
<!-- DeleteOrderComponent&#45;&gt;AppModule -->
<g id="edge12" class="edge">
<title>DeleteOrderComponent&#45;&gt;AppModule</title>
<path fill="none" stroke="black" d="M5924,-122.11C5924,-141.34 5924,-169 5924,-169 5924,-169 3922.94,-169 3922.94,-169"/>
<polygon fill="black" stroke="black" points="3922.94,-165.5 3912.94,-169 3922.94,-172.5 3922.94,-165.5"/>
</g>
<!-- DeleteProductComponent -->
<g id="node13" class="node">
<title>DeleteProductComponent</title>
<polygon fill="#ffffb3" stroke="black" points="5830.91,-122 5669.09,-122 5669.09,-86 5830.91,-86 5830.91,-122"/>
<text text-anchor="middle" x="5750" y="-99.8" font-family="Times,serif" font-size="14.00">DeleteProductComponent</text>
</g>
<!-- DeleteProductComponent&#45;&gt;AppModule -->
<g id="edge13" class="edge">
<title>DeleteProductComponent&#45;&gt;AppModule</title>
<path fill="none" stroke="black" d="M5750,-122.17C5750,-141.09 5750,-168 5750,-168 5750,-168 3922.88,-168 3922.88,-168"/>
<polygon fill="black" stroke="black" points="3922.88,-164.5 3912.88,-168 3922.88,-171.5 3922.88,-164.5"/>
</g>
<!-- DeleteUserComponent -->
<g id="node14" class="node">
<title>DeleteUserComponent</title>
<polygon fill="#ffffb3" stroke="black" points="5651.29,-122 5506.71,-122 5506.71,-86 5651.29,-86 5651.29,-122"/>
<text text-anchor="middle" x="5579" y="-99.8" font-family="Times,serif" font-size="14.00">DeleteUserComponent</text>
</g>
<!-- DeleteUserComponent&#45;&gt;AppModule -->
<g id="edge14" class="edge">
<title>DeleteUserComponent&#45;&gt;AppModule</title>
<path fill="none" stroke="black" d="M5579,-122.27C5579,-140.56 5579,-166 5579,-166 5579,-166 3922.8,-166 3922.8,-166"/>
<polygon fill="black" stroke="black" points="3922.8,-162.5 3912.8,-166 3922.8,-169.5 3922.8,-162.5"/>
</g>
<!-- DeliveringOrderDetailsComponent -->
<g id="node15" class="node">
<title>DeliveringOrderDetailsComponent</title>
<polygon fill="#ffffb3" stroke="black" points="5489,-122 5275,-122 5275,-86 5489,-86 5489,-122"/>
<text text-anchor="middle" x="5382" y="-99.8" font-family="Times,serif" font-size="14.00">DeliveringOrderDetailsComponent</text>
</g>
<!-- DeliveringOrderDetailsComponent&#45;&gt;AppModule -->
<g id="edge15" class="edge">
<title>DeliveringOrderDetailsComponent&#45;&gt;AppModule</title>
<path fill="none" stroke="black" d="M5382,-122.3C5382,-140.27 5382,-165 5382,-165 5382,-165 3922.99,-165 3922.99,-165"/>
<polygon fill="black" stroke="black" points="3922.99,-161.5 3912.99,-165 3922.99,-168.5 3922.99,-161.5"/>
</g>
<!-- DeliveringOrdersInprogressComponent -->
<g id="node16" class="node">
<title>DeliveringOrdersInprogressComponent</title>
<polygon fill="#ffffb3" stroke="black" points="5257.37,-122 5018.63,-122 5018.63,-86 5257.37,-86 5257.37,-122"/>
<text text-anchor="middle" x="5138" y="-99.8" font-family="Times,serif" font-size="14.00">DeliveringOrdersInprogressComponent</text>
</g>
<!-- DeliveringOrdersInprogressComponent&#45;&gt;AppModule -->
<g id="edge16" class="edge">
<title>DeliveringOrdersInprogressComponent&#45;&gt;AppModule</title>
<path fill="none" stroke="black" d="M5138,-122.02C5138,-139.37 5138,-163 5138,-163 5138,-163 3922.79,-163 3922.79,-163"/>
<polygon fill="black" stroke="black" points="3922.79,-159.5 3912.79,-163 3922.79,-166.5 3922.79,-159.5"/>
</g>
<!-- EditClientComponent -->
<g id="node17" class="node">
<title>EditClientComponent</title>
<polygon fill="#ffffb3" stroke="black" points="5000.39,-122 4861.61,-122 4861.61,-86 5000.39,-86 5000.39,-122"/>
<text text-anchor="middle" x="4931" y="-99.8" font-family="Times,serif" font-size="14.00">EditClientComponent</text>
</g>
<!-- EditClientComponent&#45;&gt;AppModule -->
<g id="edge17" class="edge">
<title>EditClientComponent&#45;&gt;AppModule</title>
<path fill="none" stroke="black" d="M4931,-122.03C4931,-139.06 4931,-162 4931,-162 4931,-162 3922.88,-162 3922.88,-162"/>
<polygon fill="black" stroke="black" points="3922.88,-158.5 3912.88,-162 3922.88,-165.5 3922.88,-158.5"/>
</g>
<!-- EditStockComponent -->
<g id="node18" class="node">
<title>EditStockComponent</title>
<polygon fill="#ffffb3" stroke="black" points="4843.05,-122 4706.95,-122 4706.95,-86 4843.05,-86 4843.05,-122"/>
<text text-anchor="middle" x="4775" y="-99.8" font-family="Times,serif" font-size="14.00">EditStockComponent</text>
</g>
<!-- EditStockComponent&#45;&gt;AppModule -->
<g id="edge18" class="edge">
<title>EditStockComponent&#45;&gt;AppModule</title>
<path fill="none" stroke="black" d="M4775,-122.03C4775,-138.4 4775,-160 4775,-160 4775,-160 3922.79,-160 3922.79,-160"/>
<polygon fill="black" stroke="black" points="3922.79,-156.5 3912.79,-160 3922.79,-163.5 3922.79,-156.5"/>
</g>
<!-- EditUserComponent -->
<g id="node19" class="node">
<title>EditUserComponent</title>
<polygon fill="#ffffb3" stroke="black" points="4688.59,-122 4557.41,-122 4557.41,-86 4688.59,-86 4688.59,-122"/>
<text text-anchor="middle" x="4623" y="-99.8" font-family="Times,serif" font-size="14.00">EditUserComponent</text>
</g>
<!-- EditUserComponent&#45;&gt;AppModule -->
<g id="edge19" class="edge">
<title>EditUserComponent&#45;&gt;AppModule</title>
<path fill="none" stroke="black" d="M4623,-122.01C4623,-138.05 4623,-159 4623,-159 4623,-159 3922.77,-159 3922.77,-159"/>
<polygon fill="black" stroke="black" points="3922.77,-155.5 3912.77,-159 3922.77,-162.5 3922.77,-155.5"/>
</g>
<!-- FooterComponent -->
<g id="node20" class="node">
<title>FooterComponent</title>
<polygon fill="#ffffb3" stroke="black" points="4539.88,-122 4422.12,-122 4422.12,-86 4539.88,-86 4539.88,-122"/>
<text text-anchor="middle" x="4481" y="-99.8" font-family="Times,serif" font-size="14.00">FooterComponent</text>
</g>
<!-- FooterComponent&#45;&gt;AppModule -->
<g id="edge20" class="edge">
<title>FooterComponent&#45;&gt;AppModule</title>
<path fill="none" stroke="black" d="M4481,-122.24C4481,-137.57 4481,-157 4481,-157 4481,-157 3922.93,-157 3922.93,-157"/>
<polygon fill="black" stroke="black" points="3922.93,-153.5 3912.93,-157 3922.93,-160.5 3922.93,-153.5"/>
</g>
<!-- ForgotpasswordComponent -->
<g id="node21" class="node">
<title>ForgotpasswordComponent</title>
<polygon fill="#ffffb3" stroke="black" points="4403.54,-122 4232.46,-122 4232.46,-86 4403.54,-86 4403.54,-122"/>
<text text-anchor="middle" x="4318" y="-99.8" font-family="Times,serif" font-size="14.00">ForgotpasswordComponent</text>
</g>
<!-- ForgotpasswordComponent&#45;&gt;AppModule -->
<g id="edge21" class="edge">
<title>ForgotpasswordComponent&#45;&gt;AppModule</title>
<path fill="none" stroke="black" d="M4318,-122.19C4318,-137.18 4318,-156 4318,-156 4318,-156 3923.05,-156 3923.05,-156"/>
<polygon fill="black" stroke="black" points="3923.05,-152.5 3913.05,-156 3923.05,-159.5 3923.05,-152.5"/>
</g>
<!-- HeaderComponent -->
<g id="node22" class="node">
<title>HeaderComponent</title>
<polygon fill="#ffffb3" stroke="black" points="4213.74,-122 4092.26,-122 4092.26,-86 4213.74,-86 4213.74,-122"/>
<text text-anchor="middle" x="4153" y="-99.8" font-family="Times,serif" font-size="14.00">HeaderComponent</text>
</g>
<!-- HeaderComponent&#45;&gt;AppModule -->
<g id="edge22" class="edge">
<title>HeaderComponent&#45;&gt;AppModule</title>
<path fill="none" stroke="black" d="M4153,-122.05C4153,-136.37 4153,-154 4153,-154 4153,-154 3922.91,-154 3922.91,-154"/>
<polygon fill="black" stroke="black" points="3922.91,-150.5 3912.91,-154 3922.91,-157.5 3922.91,-150.5"/>
</g>
<!-- LoginComponent -->
<g id="node23" class="node">
<title>LoginComponent</title>
<polygon fill="#ffffb3" stroke="black" points="4074.28,-122 3959.72,-122 3959.72,-86 4074.28,-86 4074.28,-122"/>
<text text-anchor="middle" x="4017" y="-99.8" font-family="Times,serif" font-size="14.00">LoginComponent</text>
</g>
<!-- LoginComponent&#45;&gt;AppModule -->
<g id="edge23" class="edge">
<title>LoginComponent&#45;&gt;AppModule</title>
<path fill="none" stroke="black" d="M4017,-122.25C4017,-136.18 4017,-153 4017,-153 4017,-153 3922.84,-153 3922.84,-153"/>
<polygon fill="black" stroke="black" points="3922.84,-149.5 3912.84,-153 3922.84,-156.5 3922.84,-149.5"/>
</g>
<!-- LoginformComponent -->
<g id="node24" class="node">
<title>LoginformComponent</title>
<polygon fill="#ffffb3" stroke="black" points="3941.99,-122 3800.01,-122 3800.01,-86 3941.99,-86 3941.99,-122"/>
<text text-anchor="middle" x="3871" y="-99.8" font-family="Times,serif" font-size="14.00">LoginformComponent</text>
</g>
<!-- LoginformComponent&#45;&gt;AppModule -->
<g id="edge24" class="edge">
<title>LoginformComponent&#45;&gt;AppModule</title>
<path fill="none" stroke="black" d="M3871,-122.11C3871,-122.11 3871,-140.99 3871,-140.99"/>
<polygon fill="black" stroke="black" points="3867.5,-140.99 3871,-150.99 3874.5,-140.99 3867.5,-140.99"/>
</g>
<!-- MainComponent -->
<g id="node25" class="node">
<title>MainComponent</title>
<polygon fill="#ffffb3" stroke="black" points="3782.38,-122 3671.62,-122 3671.62,-86 3782.38,-86 3782.38,-122"/>
<text text-anchor="middle" x="3727" y="-99.8" font-family="Times,serif" font-size="14.00">MainComponent</text>
</g>
<!-- MainComponent&#45;&gt;AppModule -->
<g id="edge25" class="edge">
<title>MainComponent&#45;&gt;AppModule</title>
<path fill="none" stroke="black" d="M3727,-122.25C3727,-136.18 3727,-153 3727,-153 3727,-153 3818.96,-153 3818.96,-153"/>
<polygon fill="black" stroke="black" points="3818.96,-156.5 3828.96,-153 3818.96,-149.5 3818.96,-156.5"/>
</g>
<!-- ManageClientsComponent -->
<g id="node26" class="node">
<title>ManageClientsComponent</title>
<polygon fill="#ffffb3" stroke="black" points="3654.09,-122 3487.91,-122 3487.91,-86 3654.09,-86 3654.09,-122"/>
<text text-anchor="middle" x="3571" y="-99.8" font-family="Times,serif" font-size="14.00">ManageClientsComponent</text>
</g>
<!-- ManageClientsComponent&#45;&gt;AppModule -->
<g id="edge26" class="edge">
<title>ManageClientsComponent&#45;&gt;AppModule</title>
<path fill="none" stroke="black" d="M3571,-122.05C3571,-136.37 3571,-154 3571,-154 3571,-154 3819.29,-154 3819.29,-154"/>
<polygon fill="black" stroke="black" points="3819.29,-157.5 3829.29,-154 3819.29,-150.5 3819.29,-157.5"/>
</g>
<!-- ManageStocksComponent -->
<g id="node27" class="node">
<title>ManageStocksComponent</title>
<polygon fill="#ffffb3" stroke="black" points="3469.75,-122 3306.25,-122 3306.25,-86 3469.75,-86 3469.75,-122"/>
<text text-anchor="middle" x="3388" y="-99.8" font-family="Times,serif" font-size="14.00">ManageStocksComponent</text>
</g>
<!-- ManageStocksComponent&#45;&gt;AppModule -->
<g id="edge27" class="edge">
<title>ManageStocksComponent&#45;&gt;AppModule</title>
<path fill="none" stroke="black" d="M3388,-122.19C3388,-137.18 3388,-156 3388,-156 3388,-156 3818.98,-156 3818.98,-156"/>
<polygon fill="black" stroke="black" points="3818.98,-159.5 3828.98,-156 3818.98,-152.5 3818.98,-159.5"/>
</g>
<!-- NewOrderComponent -->
<g id="node28" class="node">
<title>NewOrderComponent</title>
<polygon fill="#ffffb3" stroke="black" points="3288.4,-122 3147.6,-122 3147.6,-86 3288.4,-86 3288.4,-122"/>
<text text-anchor="middle" x="3218" y="-99.8" font-family="Times,serif" font-size="14.00">NewOrderComponent</text>
</g>
<!-- NewOrderComponent&#45;&gt;AppModule -->
<g id="edge28" class="edge">
<title>NewOrderComponent&#45;&gt;AppModule</title>
<path fill="none" stroke="black" d="M3218,-122.24C3218,-137.57 3218,-157 3218,-157 3218,-157 3819.16,-157 3819.16,-157"/>
<polygon fill="black" stroke="black" points="3819.16,-160.5 3829.16,-157 3819.16,-153.5 3819.16,-160.5"/>
</g>
<!-- NotFoundComponent -->
<g id="node29" class="node">
<title>NotFoundComponent</title>
<polygon fill="#ffffb3" stroke="black" points="3130.11,-122 2991.89,-122 2991.89,-86 3130.11,-86 3130.11,-122"/>
<text text-anchor="middle" x="3061" y="-99.8" font-family="Times,serif" font-size="14.00">NotFoundComponent</text>
</g>
<!-- NotFoundComponent&#45;&gt;AppModule -->
<g id="edge29" class="edge">
<title>NotFoundComponent&#45;&gt;AppModule</title>
<path fill="none" stroke="black" d="M3061,-122.01C3061,-138.05 3061,-159 3061,-159 3061,-159 3819.16,-159 3819.16,-159"/>
<polygon fill="black" stroke="black" points="3819.16,-162.5 3829.16,-159 3819.16,-155.5 3819.16,-162.5"/>
</g>
<!-- OrderDetailsComponent -->
<g id="node30" class="node">
<title>OrderDetailsComponent</title>
<polygon fill="#ffffb3" stroke="black" points="2973.63,-122 2820.37,-122 2820.37,-86 2973.63,-86 2973.63,-122"/>
<text text-anchor="middle" x="2897" y="-99.8" font-family="Times,serif" font-size="14.00">OrderDetailsComponent</text>
</g>
<!-- OrderDetailsComponent&#45;&gt;AppModule -->
<g id="edge30" class="edge">
<title>OrderDetailsComponent&#45;&gt;AppModule</title>
<path fill="none" stroke="black" d="M2897,-122.03C2897,-138.4 2897,-160 2897,-160 2897,-160 3819.15,-160 3819.15,-160"/>
<polygon fill="black" stroke="black" points="3819.15,-163.5 3829.15,-160 3819.15,-156.5 3819.15,-163.5"/>
</g>
<!-- OrdersComponent -->
<g id="node31" class="node">
<title>OrdersComponent</title>
<polygon fill="#ffffb3" stroke="black" points="2801.92,-122 2682.08,-122 2682.08,-86 2801.92,-86 2801.92,-122"/>
<text text-anchor="middle" x="2742" y="-99.8" font-family="Times,serif" font-size="14.00">OrdersComponent</text>
</g>
<!-- OrdersComponent&#45;&gt;AppModule -->
<g id="edge31" class="edge">
<title>OrdersComponent&#45;&gt;AppModule</title>
<path fill="none" stroke="black" d="M2742,-122.03C2742,-139.06 2742,-162 2742,-162 2742,-162 3819.14,-162 3819.14,-162"/>
<polygon fill="black" stroke="black" points="3819.14,-165.5 3829.14,-162 3819.14,-158.5 3819.14,-165.5"/>
</g>
<!-- OrdersInprogressComponent -->
<g id="node32" class="node">
<title>OrdersInprogressComponent</title>
<polygon fill="#ffffb3" stroke="black" points="2664.01,-122 2485.99,-122 2485.99,-86 2664.01,-86 2664.01,-122"/>
<text text-anchor="middle" x="2575" y="-99.8" font-family="Times,serif" font-size="14.00">OrdersInprogressComponent</text>
</g>
<!-- OrdersInprogressComponent&#45;&gt;AppModule -->
<g id="edge32" class="edge">
<title>OrdersInprogressComponent&#45;&gt;AppModule</title>
<path fill="none" stroke="black" d="M2575,-122.02C2575,-139.37 2575,-163 2575,-163 2575,-163 3818.98,-163 3818.98,-163"/>
<polygon fill="black" stroke="black" points="3818.98,-166.5 3828.98,-163 3818.98,-159.5 3818.98,-166.5"/>
</g>
<!-- ProductOrderComponent -->
<g id="node33" class="node">
<title>ProductOrderComponent</title>
<polygon fill="#ffffb3" stroke="black" points="2467.52,-122 2310.48,-122 2310.48,-86 2467.52,-86 2467.52,-122"/>
<text text-anchor="middle" x="2389" y="-99.8" font-family="Times,serif" font-size="14.00">ProductOrderComponent</text>
</g>
<!-- ProductOrderComponent&#45;&gt;AppModule -->
<g id="edge33" class="edge">
<title>ProductOrderComponent&#45;&gt;AppModule</title>
<path fill="none" stroke="black" d="M2389,-122.3C2389,-140.27 2389,-165 2389,-165 2389,-165 3819.03,-165 3819.03,-165"/>
<polygon fill="black" stroke="black" points="3819.03,-168.5 3829.03,-165 3819.03,-161.5 3819.03,-168.5"/>
</g>
<!-- QrproductinfoComponent -->
<g id="node34" class="node">
<title>QrproductinfoComponent</title>
<polygon fill="#ffffb3" stroke="black" points="2292.92,-122 2131.08,-122 2131.08,-86 2292.92,-86 2292.92,-122"/>
<text text-anchor="middle" x="2212" y="-99.8" font-family="Times,serif" font-size="14.00">QrproductinfoComponent</text>
</g>
<!-- QrproductinfoComponent&#45;&gt;AppModule -->
<g id="edge34" class="edge">
<title>QrproductinfoComponent&#45;&gt;AppModule</title>
<path fill="none" stroke="black" d="M2212,-122.27C2212,-140.56 2212,-166 2212,-166 2212,-166 3819.16,-166 3819.16,-166"/>
<polygon fill="black" stroke="black" points="3819.16,-169.5 3829.16,-166 3819.16,-162.5 3819.16,-169.5"/>
</g>
<!-- RegisterClientComponent -->
<g id="node35" class="node">
<title>RegisterClientComponent</title>
<polygon fill="#ffffb3" stroke="black" points="2113.21,-122 1950.79,-122 1950.79,-86 2113.21,-86 2113.21,-122"/>
<text text-anchor="middle" x="2032" y="-99.8" font-family="Times,serif" font-size="14.00">RegisterClientComponent</text>
</g>
<!-- RegisterClientComponent&#45;&gt;AppModule -->
<g id="edge35" class="edge">
<title>RegisterClientComponent&#45;&gt;AppModule</title>
<path fill="none" stroke="black" d="M2032,-122.17C2032,-141.09 2032,-168 2032,-168 2032,-168 3819.13,-168 3819.13,-168"/>
<polygon fill="black" stroke="black" points="3819.13,-171.5 3829.13,-168 3819.13,-164.5 3819.13,-171.5"/>
</g>
<!-- RegisterProductComponent -->
<g id="node36" class="node">
<title>RegisterProductComponent</title>
<polygon fill="#ffffb3" stroke="black" points="1932.53,-122 1761.47,-122 1761.47,-86 1932.53,-86 1932.53,-122"/>
<text text-anchor="middle" x="1847" y="-99.8" font-family="Times,serif" font-size="14.00">RegisterProductComponent</text>
</g>
<!-- RegisterProductComponent&#45;&gt;AppModule -->
<g id="edge36" class="edge">
<title>RegisterProductComponent&#45;&gt;AppModule</title>
<path fill="none" stroke="black" d="M1847,-122.11C1847,-141.34 1847,-169 1847,-169 1847,-169 3819.19,-169 3819.19,-169"/>
<polygon fill="black" stroke="black" points="3819.19,-172.5 3829.19,-169 3819.19,-165.5 3819.19,-172.5"/>
</g>
<!-- ResetpasswordComponent -->
<g id="node37" class="node">
<title>ResetpasswordComponent</title>
<polygon fill="#ffffb3" stroke="black" points="1743.8,-122 1578.2,-122 1578.2,-86 1743.8,-86 1743.8,-122"/>
<text text-anchor="middle" x="1661" y="-99.8" font-family="Times,serif" font-size="14.00">ResetpasswordComponent</text>
</g>
<!-- ResetpasswordComponent&#45;&gt;AppModule -->
<g id="edge37" class="edge">
<title>ResetpasswordComponent&#45;&gt;AppModule</title>
<path fill="none" stroke="black" d="M1661,-122.31C1661,-142.15 1661,-171 1661,-171 1661,-171 3819.31,-171 3819.31,-171"/>
<polygon fill="black" stroke="black" points="3819.31,-174.5 3829.31,-171 3819.31,-167.5 3819.31,-174.5"/>
</g>
<!-- SalesComponent -->
<g id="node38" class="node">
<title>SalesComponent</title>
<polygon fill="#ffffb3" stroke="black" points="1560.38,-122 1449.62,-122 1449.62,-86 1560.38,-86 1560.38,-122"/>
<text text-anchor="middle" x="1505" y="-99.8" font-family="Times,serif" font-size="14.00">SalesComponent</text>
</g>
<!-- SalesComponent&#45;&gt;AppModule -->
<g id="edge38" class="edge">
<title>SalesComponent&#45;&gt;AppModule</title>
<path fill="none" stroke="black" d="M1505,-122.22C1505,-142.37 1505,-172 1505,-172 1505,-172 3819.18,-172 3819.18,-172"/>
<polygon fill="black" stroke="black" points="3819.18,-175.5 3829.18,-172 3819.18,-168.5 3819.18,-175.5"/>
</g>
<!-- SalesHistoryComponent -->
<g id="node39" class="node">
<title>SalesHistoryComponent</title>
<polygon fill="#ffffb3" stroke="black" points="1431.37,-122 1278.63,-122 1278.63,-86 1431.37,-86 1431.37,-122"/>
<text text-anchor="middle" x="1355" y="-99.8" font-family="Times,serif" font-size="14.00">SalesHistoryComponent</text>
</g>
<!-- SalesHistoryComponent&#45;&gt;AppModule -->
<g id="edge39" class="edge">
<title>SalesHistoryComponent&#45;&gt;AppModule</title>
<path fill="none" stroke="black" d="M1355,-122.03C1355,-142.77 1355,-174 1355,-174 1355,-174 3819.17,-174 3819.17,-174"/>
<polygon fill="black" stroke="black" points="3819.17,-177.5 3829.17,-174 3819.17,-170.5 3819.17,-177.5"/>
</g>
<!-- SalesMenuComponent -->
<g id="node40" class="node">
<title>SalesMenuComponent</title>
<polygon fill="#ffffb3" stroke="black" points="1260.54,-122 1117.46,-122 1117.46,-86 1260.54,-86 1260.54,-122"/>
<text text-anchor="middle" x="1189" y="-99.8" font-family="Times,serif" font-size="14.00">SalesMenuComponent</text>
</g>
<!-- SalesMenuComponent&#45;&gt;AppModule -->
<g id="edge40" class="edge">
<title>SalesMenuComponent&#45;&gt;AppModule</title>
<path fill="none" stroke="black" d="M1189,-122.28C1189,-143.32 1189,-175 1189,-175 1189,-175 3819.14,-175 3819.14,-175"/>
<polygon fill="black" stroke="black" points="3819.14,-178.5 3829.14,-175 3819.14,-171.5 3819.14,-178.5"/>
</g>
<!-- StocksComponent -->
<g id="node41" class="node">
<title>StocksComponent</title>
<polygon fill="#ffffb3" stroke="black" points="1099.17,-122 980.83,-122 980.83,-86 1099.17,-86 1099.17,-122"/>
<text text-anchor="middle" x="1040" y="-99.8" font-family="Times,serif" font-size="14.00">StocksComponent</text>
</g>
<!-- StocksComponent&#45;&gt;AppModule -->
<g id="edge41" class="edge">
<title>StocksComponent&#45;&gt;AppModule</title>
<path fill="none" stroke="black" d="M1040,-122.04C1040,-143.66 1040,-177 1040,-177 1040,-177 3819.34,-177 3819.34,-177"/>
<polygon fill="black" stroke="black" points="3819.34,-180.5 3829.34,-177 3819.34,-173.5 3819.34,-180.5"/>
</g>
<!-- StocksHistoryComponent -->
<g id="node42" class="node">
<title>StocksHistoryComponent</title>
<polygon fill="#ffffb3" stroke="black" points="962.16,-122 801.84,-122 801.84,-86 962.16,-86 962.16,-122"/>
<text text-anchor="middle" x="882" y="-99.8" font-family="Times,serif" font-size="14.00">StocksHistoryComponent</text>
</g>
<!-- StocksHistoryComponent&#45;&gt;AppModule -->
<g id="edge42" class="edge">
<title>StocksHistoryComponent&#45;&gt;AppModule</title>
<path fill="none" stroke="black" d="M882,-122.29C882,-144.21 882,-178 882,-178 882,-178 3819.32,-178 3819.32,-178"/>
<polygon fill="black" stroke="black" points="3819.32,-181.5 3829.32,-178 3819.32,-174.5 3819.32,-181.5"/>
</g>
<!-- StocksMenuComponent -->
<g id="node43" class="node">
<title>StocksMenuComponent</title>
<polygon fill="#ffffb3" stroke="black" points="783.82,-122 632.18,-122 632.18,-86 783.82,-86 783.82,-122"/>
<text text-anchor="middle" x="708" y="-99.8" font-family="Times,serif" font-size="14.00">StocksMenuComponent</text>
</g>
<!-- StocksMenuComponent&#45;&gt;AppModule -->
<g id="edge43" class="edge">
<title>StocksMenuComponent&#45;&gt;AppModule</title>
<path fill="none" stroke="black" d="M708,-122.01C708,-144.49 708,-180 708,-180 708,-180 3819.27,-180 3819.27,-180"/>
<polygon fill="black" stroke="black" points="3819.27,-183.5 3829.27,-180 3819.27,-176.5 3819.27,-183.5"/>
</g>
<!-- UserDetailsComponent -->
<g id="node44" class="node">
<title>UserDetailsComponent</title>
<polygon fill="#ffffb3" stroke="black" points="614.91,-122 467.09,-122 467.09,-86 614.91,-86 614.91,-122"/>
<text text-anchor="middle" x="541" y="-99.8" font-family="Times,serif" font-size="14.00">UserDetailsComponent</text>
</g>
<!-- UserDetailsComponent&#45;&gt;AppModule -->
<g id="edge44" class="edge">
<title>UserDetailsComponent&#45;&gt;AppModule</title>
<path fill="none" stroke="black" d="M541,-122.25C541,-145.02 541,-181 541,-181 541,-181 3819.2,-181 3819.2,-181"/>
<polygon fill="black" stroke="black" points="3819.2,-184.5 3829.2,-181 3819.2,-177.5 3819.2,-184.5"/>
</g>
<!-- ViewStocksComponent -->
<g id="node45" class="node">
<title>ViewStocksComponent</title>
<polygon fill="#ffffb3" stroke="black" points="449.48,-122 300.52,-122 300.52,-86 449.48,-86 449.48,-122"/>
<text text-anchor="middle" x="375" y="-99.8" font-family="Times,serif" font-size="14.00">ViewStocksComponent</text>
</g>
<!-- ViewStocksComponent&#45;&gt;AppModule -->
<g id="edge45" class="edge">
<title>ViewStocksComponent&#45;&gt;AppModule</title>
<path fill="none" stroke="black" d="M375,-122.32C375,-145.66 375,-183 375,-183 375,-183 3819.3,-183 3819.3,-183"/>
<polygon fill="black" stroke="black" points="3819.3,-186.5 3829.3,-183 3819.3,-179.5 3819.3,-186.5"/>
</g>
<!-- AppComponent  -->
<g id="node49" class="node">
<title>AppComponent </title>
<polygon fill="#80b1d3" stroke="black" points="3925.44,-252 3816.56,-252 3816.56,-216 3925.44,-216 3925.44,-252"/>
<text text-anchor="middle" x="3871" y="-229.8" font-family="Times,serif" font-size="14.00">AppComponent </text>
</g>
<!-- AppModule&#45;&gt;AppComponent  -->
<g id="edge48" class="edge">
<title>AppModule&#45;&gt;AppComponent </title>
<path fill="none" stroke="black" stroke-dasharray="1,5" d="M3871,-187.11C3871,-187.11 3871,-205.99 3871,-205.99"/>
<polygon fill="black" stroke="black" points="3867.5,-205.99 3871,-215.99 3874.5,-205.99 3867.5,-205.99"/>
</g>
<!-- AppRoutingModule -->
<g id="node47" class="node">
<title>AppRoutingModule</title>
<polygon fill="#8dd3c7" stroke="black" points="277.27,-122 274.27,-126 253.27,-126 250.27,-122 148.73,-122 148.73,-86 277.27,-86 277.27,-122"/>
<text text-anchor="middle" x="213" y="-99.8" font-family="Times,serif" font-size="14.00">AppRoutingModule</text>
</g>
<!-- AppRoutingModule&#45;&gt;AppModule -->
<g id="edge46" class="edge">
<title>AppRoutingModule&#45;&gt;AppModule</title>
<path fill="none" stroke="black" d="M213,-122.15C213,-145.76 213,-184 213,-184 213,-184 3819.29,-184 3819.29,-184"/>
<polygon fill="black" stroke="black" points="3819.29,-187.5 3829.29,-184 3819.29,-180.5 3819.29,-187.5"/>
</g>
<!-- MaterialModule -->
<g id="node48" class="node">
<title>MaterialModule</title>
<polygon fill="#8dd3c7" stroke="black" points="130.47,-122 127.47,-126 106.47,-126 103.47,-122 23.53,-122 23.53,-86 130.47,-86 130.47,-122"/>
<text text-anchor="middle" x="77" y="-99.8" font-family="Times,serif" font-size="14.00">MaterialModule</text>
</g>
<!-- MaterialModule&#45;&gt;AppModule -->
<g id="edge47" class="edge">
<title>MaterialModule&#45;&gt;AppModule</title>
<path fill="none" stroke="black" d="M77,-122.2C77,-146.36 77,-186 77,-186 77,-186 3819.04,-186 3819.04,-186"/>
<polygon fill="black" stroke="black" points="3819.04,-189.5 3829.04,-186 3819.04,-182.5 3819.04,-189.5"/>
</g>
</g>
</svg>
