<?xml version="1.0" encoding="UTF-8" standalone="no"?>
<!DOCTYPE svg PUBLIC "-//W3C//DTD SVG 1.1//EN"
 "http://www.w3.org/Graphics/SVG/1.1/DTD/svg11.dtd">
<!-- Generated by graphviz version 2.46.0 (20210119.1425)
 -->
<!-- Title: dependencies Pages: 1 -->
<svg width="7799pt" height="360pt"
 viewBox="0.00 0.00 7799.00 360.00" xmlns="http://www.w3.org/2000/svg" xmlns:xlink="http://www.w3.org/1999/xlink">
<g id="graph0" class="graph" transform="scale(1 1) rotate(0) translate(4 356)">
<title>dependencies</title>
<polygon fill="white" stroke="transparent" points="-4,4 -4,-356 7795,-356 7795,4 -4,4"/>
<text text-anchor="start" x="3874.51" y="-42.4" font-family="sans-serif" font-weight="bold" font-size="14.00">Legend</text>
<polygon fill="#ffffb3" stroke="transparent" points="3661.5,-10 3661.5,-30 3681.5,-30 3681.5,-10 3661.5,-10"/>
<text text-anchor="start" x="3685.13" y="-15.4" font-family="sans-serif" font-size="14.00"> &#160;Declarations</text>
<polygon fill="#8dd3c7" stroke="transparent" points="3774.5,-10 3774.5,-30 3794.5,-30 3794.5,-10 3774.5,-10"/>
<text text-anchor="start" x="3798.23" y="-15.4" font-family="sans-serif" font-size="14.00"> &#160;Module</text>
<polygon fill="#80b1d3" stroke="transparent" points="3860.5,-10 3860.5,-30 3880.5,-30 3880.5,-10 3860.5,-10"/>
<text text-anchor="start" x="3884.28" y="-15.4" font-family="sans-serif" font-size="14.00"> &#160;Bootstrap</text>
<polygon fill="#fdb462" stroke="transparent" points="3957.5,-10 3957.5,-30 3977.5,-30 3977.5,-10 3957.5,-10"/>
<text text-anchor="start" x="3981.17" y="-15.4" font-family="sans-serif" font-size="14.00"> &#160;Providers</text>
<polygon fill="#fb8072" stroke="transparent" points="4053.5,-10 4053.5,-30 4073.5,-30 4073.5,-10 4053.5,-10"/>
<text text-anchor="start" x="4077.23" y="-15.4" font-family="sans-serif" font-size="14.00"> &#160;Exports</text>
<g id="clust1" class="cluster">
<title>cluster_AppModule</title>
<polygon fill="none" stroke="black" stroke-dasharray="1,5" points="8,-146 8,-344 7774,-344 7774,-146 8,-146"/>
</g>
<g id="clust50" class="cluster">
<title>cluster_AppModule_bootstrap</title>
<polygon fill="none" stroke="black" points="3814,-284 3814,-336 3938,-336 3938,-284 3814,-284"/>
</g>
<g id="clust48" class="cluster">
<title>cluster_AppModule_imports</title>
<polygon fill="none" stroke="black" points="7497,-154 7497,-206 7766,-206 7766,-154 7497,-154"/>
</g>
<g id="clust2" class="cluster">
<title>cluster_AppModule_declarations</title>
<polygon fill="none" stroke="black" points="16,-154 16,-206 7489,-206 7489,-154 16,-154"/>
</g>
<g id="clust52" class="cluster">
<title>cluster_AppRoutingModule</title>
<polygon fill="none" stroke="black" stroke-dasharray="1,5" points="7605,-70 7605,-138 7783,-138 7783,-70 7605,-70"/>
</g>
<g id="clust57" class="cluster">
<title>cluster_AppRoutingModule_providers</title>
<polygon fill="none" stroke="black" points="7613,-78 7613,-130 7775,-130 7775,-78 7613,-78"/>
</g>
<!-- AdminComponent -->
<g id="node1" class="node">
<title>AdminComponent</title>
<polygon fill="#ffffb3" stroke="black" points="7481.22,-198 7360.78,-198 7360.78,-162 7481.22,-162 7481.22,-198"/>
<text text-anchor="middle" x="7421" y="-175.8" font-family="Times,serif" font-size="14.00">AdminComponent</text>
</g>
<!-- AppModule -->
<g id="node46" class="node">
<title>AppModule</title>
<polygon fill="#8dd3c7" stroke="black" points="3917.66,-263 3914.66,-267 3893.66,-267 3890.66,-263 3834.34,-263 3834.34,-227 3917.66,-227 3917.66,-263"/>
<text text-anchor="middle" x="3876" y="-240.8" font-family="Times,serif" font-size="14.00">AppModule</text>
</g>
<!-- AdminComponent&#45;&gt;AppModule -->
<g id="edge1" class="edge">
<title>AdminComponent&#45;&gt;AppModule</title>
<path fill="none" stroke="black" d="M7421,-198.32C7421,-221.66 7421,-259 7421,-259 7421,-259 3927.66,-259 3927.66,-259"/>
<polygon fill="black" stroke="black" points="3927.66,-255.5 3917.66,-259 3927.66,-262.5 3927.66,-255.5"/>
</g>
<!-- AdminMenuComponent -->
<g id="node2" class="node">
<title>AdminMenuComponent</title>
<polygon fill="#ffffb3" stroke="black" points="7342.38,-198 7189.62,-198 7189.62,-162 7342.38,-162 7342.38,-198"/>
<text text-anchor="middle" x="7266" y="-175.8" font-family="Times,serif" font-size="14.00">AdminMenuComponent</text>
</g>
<!-- AdminMenuComponent&#45;&gt;AppModule -->
<g id="edge2" class="edge">
<title>AdminMenuComponent&#45;&gt;AppModule</title>
<path fill="none" stroke="black" d="M7266,-198.25C7266,-221.02 7266,-257 7266,-257 7266,-257 3927.94,-257 3927.94,-257"/>
<polygon fill="black" stroke="black" points="3927.94,-253.5 3917.94,-257 3927.94,-260.5 3927.94,-253.5"/>
</g>
<!-- AdminUsersComponent -->
<g id="node3" class="node">
<title>AdminUsersComponent</title>
<polygon fill="#ffffb3" stroke="black" points="7172.09,-198 7019.91,-198 7019.91,-162 7172.09,-162 7172.09,-198"/>
<text text-anchor="middle" x="7096" y="-175.8" font-family="Times,serif" font-size="14.00">AdminUsersComponent</text>
</g>
<!-- AdminUsersComponent&#45;&gt;AppModule -->
<g id="edge3" class="edge">
<title>AdminUsersComponent&#45;&gt;AppModule</title>
<path fill="none" stroke="black" d="M7096,-198.01C7096,-220.49 7096,-256 7096,-256 7096,-256 3927.89,-256 3927.89,-256"/>
<polygon fill="black" stroke="black" points="3927.89,-252.5 3917.89,-256 3927.89,-259.5 3927.89,-252.5"/>
</g>
<!-- AppComponent -->
<g id="node4" class="node">
<title>AppComponent</title>
<polygon fill="#ffffb3" stroke="black" points="7001.94,-198 6896.06,-198 6896.06,-162 7001.94,-162 7001.94,-198"/>
<text text-anchor="middle" x="6949" y="-175.8" font-family="Times,serif" font-size="14.00">AppComponent</text>
</g>
<!-- AppComponent&#45;&gt;AppModule -->
<g id="edge4" class="edge">
<title>AppComponent&#45;&gt;AppModule</title>
<path fill="none" stroke="black" d="M6949,-198.29C6949,-220.21 6949,-254 6949,-254 6949,-254 3927.69,-254 3927.69,-254"/>
<polygon fill="black" stroke="black" points="3927.69,-250.5 3917.69,-254 3927.69,-257.5 3927.69,-250.5"/>
</g>
<!-- ClientComponent -->
<g id="node5" class="node">
<title>ClientComponent</title>
<polygon fill="#ffffb3" stroke="black" points="6878.56,-198 6763.44,-198 6763.44,-162 6878.56,-162 6878.56,-198"/>
<text text-anchor="middle" x="6821" y="-175.8" font-family="Times,serif" font-size="14.00">ClientComponent</text>
</g>
<!-- ClientComponent&#45;&gt;AppModule -->
<g id="edge5" class="edge">
<title>ClientComponent&#45;&gt;AppModule</title>
<path fill="none" stroke="black" d="M6821,-198.04C6821,-219.66 6821,-253 6821,-253 6821,-253 3927.91,-253 3927.91,-253"/>
<polygon fill="black" stroke="black" points="3927.91,-249.5 3917.91,-253 3927.91,-256.5 3927.91,-249.5"/>
</g>
<!-- ClientDetailsComponent -->
<g id="node6" class="node">
<title>ClientDetailsComponent</title>
<polygon fill="#ffffb3" stroke="black" points="6745.71,-198 6590.29,-198 6590.29,-162 6745.71,-162 6745.71,-198"/>
<text text-anchor="middle" x="6668" y="-175.8" font-family="Times,serif" font-size="14.00">ClientDetailsComponent</text>
</g>
<!-- ClientDetailsComponent&#45;&gt;AppModule -->
<g id="edge6" class="edge">
<title>ClientDetailsComponent&#45;&gt;AppModule</title>
<path fill="none" stroke="black" d="M6668,-198.28C6668,-219.32 6668,-251 6668,-251 6668,-251 3927.91,-251 3927.91,-251"/>
<polygon fill="black" stroke="black" points="3927.91,-247.5 3917.91,-251 3927.91,-254.5 3927.91,-247.5"/>
</g>
<!-- ClientOrderComponent -->
<g id="node7" class="node">
<title>ClientOrderComponent</title>
<polygon fill="#ffffb3" stroke="black" points="6572.2,-198 6423.8,-198 6423.8,-162 6572.2,-162 6572.2,-198"/>
<text text-anchor="middle" x="6498" y="-175.8" font-family="Times,serif" font-size="14.00">ClientOrderComponent</text>
</g>
<!-- ClientOrderComponent&#45;&gt;AppModule -->
<g id="edge7" class="edge">
<title>ClientOrderComponent&#45;&gt;AppModule</title>
<path fill="none" stroke="black" d="M6498,-198.03C6498,-218.77 6498,-250 6498,-250 6498,-250 3927.71,-250 3927.71,-250"/>
<polygon fill="black" stroke="black" points="3927.71,-246.5 3917.71,-250 3927.71,-253.5 3927.71,-246.5"/>
</g>
<!-- ClientsMenuComponent -->
<g id="node8" class="node">
<title>ClientsMenuComponent</title>
<polygon fill="#ffffb3" stroke="black" points="6405.66,-198 6252.34,-198 6252.34,-162 6405.66,-162 6405.66,-198"/>
<text text-anchor="middle" x="6329" y="-175.8" font-family="Times,serif" font-size="14.00">ClientsMenuComponent</text>
</g>
<!-- ClientsMenuComponent&#45;&gt;AppModule -->
<g id="edge8" class="edge">
<title>ClientsMenuComponent&#45;&gt;AppModule</title>
<path fill="none" stroke="black" d="M6329,-198.22C6329,-218.37 6329,-248 6329,-248 6329,-248 3927.8,-248 3927.8,-248"/>
<polygon fill="black" stroke="black" points="3927.8,-244.5 3917.8,-248 3927.8,-251.5 3927.8,-244.5"/>
</g>
<!-- ConfirmOrderComponent -->
<g id="node9" class="node">
<title>ConfirmOrderComponent</title>
<polygon fill="#ffffb3" stroke="black" points="6233.91,-198 6072.09,-198 6072.09,-162 6233.91,-162 6233.91,-198"/>
<text text-anchor="middle" x="6153" y="-175.8" font-family="Times,serif" font-size="14.00">ConfirmOrderComponent</text>
</g>
<!-- ConfirmOrderComponent&#45;&gt;AppModule -->
<g id="edge9" class="edge">
<title>ConfirmOrderComponent&#45;&gt;AppModule</title>
<path fill="none" stroke="black" d="M6153,-198.31C6153,-218.15 6153,-247 6153,-247 6153,-247 3927.96,-247 3927.96,-247"/>
<polygon fill="black" stroke="black" points="3927.96,-243.5 3917.96,-247 3927.96,-250.5 3927.96,-243.5"/>
</g>
<!-- CreateUserComponent -->
<g id="node10" class="node">
<title>CreateUserComponent</title>
<polygon fill="#ffffb3" stroke="black" points="6054.29,-198 5909.71,-198 5909.71,-162 6054.29,-162 6054.29,-198"/>
<text text-anchor="middle" x="5982" y="-175.8" font-family="Times,serif" font-size="14.00">CreateUserComponent</text>
</g>
<!-- CreateUserComponent&#45;&gt;AppModule -->
<g id="edge10" class="edge">
<title>CreateUserComponent&#45;&gt;AppModule</title>
<path fill="none" stroke="black" d="M5982,-198.11C5982,-217.34 5982,-245 5982,-245 5982,-245 3928.07,-245 3928.07,-245"/>
<polygon fill="black" stroke="black" points="3928.07,-241.5 3918.07,-245 3928.07,-248.5 3928.07,-241.5"/>
</g>
<!-- DeleteClientComponent -->
<g id="node11" class="node">
<title>DeleteClientComponent</title>
<polygon fill="#ffffb3" stroke="black" points="5892.09,-198 5739.91,-198 5739.91,-162 5892.09,-162 5892.09,-198"/>
<text text-anchor="middle" x="5816" y="-175.8" font-family="Times,serif" font-size="14.00">DeleteClientComponent</text>
</g>
<!-- DeleteClientComponent&#45;&gt;AppModule -->
<g id="edge11" class="edge">
<title>DeleteClientComponent&#45;&gt;AppModule</title>
<path fill="none" stroke="black" d="M5816,-198.17C5816,-217.09 5816,-244 5816,-244 5816,-244 3927.87,-244 3927.87,-244"/>
<polygon fill="black" stroke="black" points="3927.87,-240.5 3917.87,-244 3927.87,-247.5 3927.87,-240.5"/>
</g>
<!-- DeleteOrderComponent -->
<g id="node12" class="node">
<title>DeleteOrderComponent</title>
<polygon fill="#ffffb3" stroke="black" points="5722.01,-198 5571.99,-198 5571.99,-162 5722.01,-162 5722.01,-198"/>
<text text-anchor="middle" x="5647" y="-175.8" font-family="Times,serif" font-size="14.00">DeleteOrderComponent</text>
</g>
<!-- DeleteOrderComponent&#45;&gt;AppModule -->
<g id="edge12" class="edge">
<title>DeleteOrderComponent&#45;&gt;AppModule</title>
<path fill="none" stroke="black" d="M5647,-198.27C5647,-216.56 5647,-242 5647,-242 5647,-242 3928.03,-242 3928.03,-242"/>
<polygon fill="black" stroke="black" points="3928.03,-238.5 3918.03,-242 3928.03,-245.5 3928.03,-238.5"/>
</g>
<!-- DeleteProductComponent -->
<g id="node13" class="node">
<title>DeleteProductComponent</title>
<polygon fill="#ffffb3" stroke="black" points="5553.91,-198 5392.09,-198 5392.09,-162 5553.91,-162 5553.91,-198"/>
<text text-anchor="middle" x="5473" y="-175.8" font-family="Times,serif" font-size="14.00">DeleteProductComponent</text>
</g>
<!-- DeleteProductComponent&#45;&gt;AppModule -->
<g id="edge13" class="edge">
<title>DeleteProductComponent&#45;&gt;AppModule</title>
<path fill="none" stroke="black" d="M5473,-198.3C5473,-216.27 5473,-241 5473,-241 5473,-241 3927.9,-241 3927.9,-241"/>
<polygon fill="black" stroke="black" points="3927.9,-237.5 3917.9,-241 3927.89,-244.5 3927.9,-237.5"/>
</g>
<!-- DeleteUserComponent -->
<g id="node14" class="node">
<title>DeleteUserComponent</title>
<polygon fill="#ffffb3" stroke="black" points="5374.29,-198 5229.71,-198 5229.71,-162 5374.29,-162 5374.29,-198"/>
<text text-anchor="middle" x="5302" y="-175.8" font-family="Times,serif" font-size="14.00">DeleteUserComponent</text>
</g>
<!-- DeleteUserComponent&#45;&gt;AppModule -->
<g id="edge14" class="edge">
<title>DeleteUserComponent&#45;&gt;AppModule</title>
<path fill="none" stroke="black" d="M5302,-198.02C5302,-215.37 5302,-239 5302,-239 5302,-239 3927.91,-239 3927.91,-239"/>
<polygon fill="black" stroke="black" points="3927.91,-235.5 3917.91,-239 3927.91,-242.5 3927.91,-235.5"/>
</g>
<!-- DeliveringOrderDetailsComponent -->
<g id="node15" class="node">
<title>DeliveringOrderDetailsComponent</title>
<polygon fill="#ffffb3" stroke="black" points="5212,-198 4998,-198 4998,-162 5212,-162 5212,-198"/>
<text text-anchor="middle" x="5105" y="-175.8" font-family="Times,serif" font-size="14.00">DeliveringOrderDetailsComponent</text>
</g>
<!-- DeliveringOrderDetailsComponent&#45;&gt;AppModule -->
<g id="edge15" class="edge">
<title>DeliveringOrderDetailsComponent&#45;&gt;AppModule</title>
<path fill="none" stroke="black" d="M5105,-198.03C5105,-215.06 5105,-238 5105,-238 5105,-238 3927.95,-238 3927.95,-238"/>
<polygon fill="black" stroke="black" points="3927.95,-234.5 3917.95,-238 3927.95,-241.5 3927.95,-234.5"/>
</g>
<!-- DeliveringOrdersInprogressComponent -->
<g id="node16" class="node">
<title>DeliveringOrdersInprogressComponent</title>
<polygon fill="#ffffb3" stroke="black" points="4980.37,-198 4741.63,-198 4741.63,-162 4980.37,-162 4980.37,-198"/>
<text text-anchor="middle" x="4861" y="-175.8" font-family="Times,serif" font-size="14.00">DeliveringOrdersInprogressComponent</text>
</g>
<!-- DeliveringOrdersInprogressComponent&#45;&gt;AppModule -->
<g id="edge16" class="edge">
<title>DeliveringOrdersInprogressComponent&#45;&gt;AppModule</title>
<path fill="none" stroke="black" d="M4861,-198.03C4861,-214.4 4861,-236 4861,-236 4861,-236 3927.7,-236 3927.7,-236"/>
<polygon fill="black" stroke="black" points="3927.7,-232.5 3917.7,-236 3927.7,-239.5 3927.7,-232.5"/>
</g>
<!-- EditClientComponent -->
<g id="node17" class="node">
<title>EditClientComponent</title>
<polygon fill="#ffffb3" stroke="black" points="4723.39,-198 4584.61,-198 4584.61,-162 4723.39,-162 4723.39,-198"/>
<text text-anchor="middle" x="4654" y="-175.8" font-family="Times,serif" font-size="14.00">EditClientComponent</text>
</g>
<!-- EditClientComponent&#45;&gt;AppModule -->
<g id="edge17" class="edge">
<title>EditClientComponent&#45;&gt;AppModule</title>
<path fill="none" stroke="black" d="M4654,-198.01C4654,-214.05 4654,-235 4654,-235 4654,-235 3927.83,-235 3927.83,-235"/>
<polygon fill="black" stroke="black" points="3927.83,-231.5 3917.83,-235 3927.83,-238.5 3927.83,-231.5"/>
</g>
<!-- EditStockComponent -->
<g id="node18" class="node">
<title>EditStockComponent</title>
<polygon fill="#ffffb3" stroke="black" points="4566.05,-198 4429.95,-198 4429.95,-162 4566.05,-162 4566.05,-198"/>
<text text-anchor="middle" x="4498" y="-175.8" font-family="Times,serif" font-size="14.00">EditStockComponent</text>
</g>
<!-- EditStockComponent&#45;&gt;AppModule -->
<g id="edge18" class="edge">
<title>EditStockComponent&#45;&gt;AppModule</title>
<path fill="none" stroke="black" d="M4498,-198.24C4498,-213.57 4498,-233 4498,-233 4498,-233 3927.78,-233 3927.78,-233"/>
<polygon fill="black" stroke="black" points="3927.78,-229.5 3917.78,-233 3927.78,-236.5 3927.78,-229.5"/>
</g>
<!-- EditUserComponent -->
<g id="node19" class="node">
<title>EditUserComponent</title>
<polygon fill="#ffffb3" stroke="black" points="4411.59,-198 4280.41,-198 4280.41,-162 4411.59,-162 4411.59,-198"/>
<text text-anchor="middle" x="4346" y="-175.8" font-family="Times,serif" font-size="14.00">EditUserComponent</text>
</g>
<!-- EditUserComponent&#45;&gt;AppModule -->
<g id="edge19" class="edge">
<title>EditUserComponent&#45;&gt;AppModule</title>
<path fill="none" stroke="black" d="M4346,-198.19C4346,-213.18 4346,-232 4346,-232 4346,-232 3927.71,-232 3927.71,-232"/>
<polygon fill="black" stroke="black" points="3927.71,-228.5 3917.71,-232 3927.71,-235.5 3927.71,-228.5"/>
</g>
<!-- FooterComponent -->
<g id="node20" class="node">
<title>FooterComponent</title>
<polygon fill="#ffffb3" stroke="black" points="4262.88,-198 4145.12,-198 4145.12,-162 4262.88,-162 4262.88,-198"/>
<text text-anchor="middle" x="4204" y="-175.8" font-family="Times,serif" font-size="14.00">FooterComponent</text>
</g>
<!-- FooterComponent&#45;&gt;AppModule -->
<g id="edge20" class="edge">
<title>FooterComponent&#45;&gt;AppModule</title>
<path fill="none" stroke="black" d="M4204,-198.05C4204,-212.37 4204,-230 4204,-230 4204,-230 3927.87,-230 3927.87,-230"/>
<polygon fill="black" stroke="black" points="3927.87,-226.5 3917.87,-230 3927.87,-233.5 3927.87,-226.5"/>
</g>
<!-- ForgotpasswordComponent -->
<g id="node21" class="node">
<title>ForgotpasswordComponent</title>
<polygon fill="#ffffb3" stroke="black" points="4126.54,-198 3955.46,-198 3955.46,-162 4126.54,-162 4126.54,-198"/>
<text text-anchor="middle" x="4041" y="-175.8" font-family="Times,serif" font-size="14.00">ForgotpasswordComponent</text>
</g>
<!-- ForgotpasswordComponent&#45;&gt;AppModule -->
<g id="edge21" class="edge">
<title>ForgotpasswordComponent&#45;&gt;AppModule</title>
<path fill="none" stroke="black" d="M4041,-198.25C4041,-212.18 4041,-229 4041,-229 4041,-229 3928.06,-229 3928.06,-229"/>
<polygon fill="black" stroke="black" points="3928.06,-225.5 3918.06,-229 3928.06,-232.5 3928.06,-225.5"/>
</g>
<!-- HeaderComponent -->
<g id="node22" class="node">
<title>HeaderComponent</title>
<polygon fill="#ffffb3" stroke="black" points="3936.74,-198 3815.26,-198 3815.26,-162 3936.74,-162 3936.74,-198"/>
<text text-anchor="middle" x="3876" y="-175.8" font-family="Times,serif" font-size="14.00">HeaderComponent</text>
</g>
<!-- HeaderComponent&#45;&gt;AppModule -->
<g id="edge22" class="edge">
<title>HeaderComponent&#45;&gt;AppModule</title>
<path fill="none" stroke="black" d="M3876,-198.11C3876,-198.11 3876,-216.99 3876,-216.99"/>
<polygon fill="black" stroke="black" points="3872.5,-216.99 3876,-226.99 3879.5,-216.99 3872.5,-216.99"/>
</g>
<!-- LoginComponent -->
<g id="node23" class="node">
<title>LoginComponent</title>
<polygon fill="#ffffb3" stroke="black" points="3797.28,-198 3682.72,-198 3682.72,-162 3797.28,-162 3797.28,-198"/>
<text text-anchor="middle" x="3740" y="-175.8" font-family="Times,serif" font-size="14.00">LoginComponent</text>
</g>
<!-- LoginComponent&#45;&gt;AppModule -->
<g id="edge23" class="edge">
<title>LoginComponent&#45;&gt;AppModule</title>
<path fill="none" stroke="black" d="M3740,-198.25C3740,-212.18 3740,-229 3740,-229 3740,-229 3824.09,-229 3824.09,-229"/>
<polygon fill="black" stroke="black" points="3824.09,-232.5 3834.09,-229 3824.09,-225.5 3824.09,-232.5"/>
</g>
<!-- LoginformComponent -->
<g id="node24" class="node">
<title>LoginformComponent</title>
<polygon fill="#ffffb3" stroke="black" points="3664.99,-198 3523.01,-198 3523.01,-162 3664.99,-162 3664.99,-198"/>
<text text-anchor="middle" x="3594" y="-175.8" font-family="Times,serif" font-size="14.00">LoginformComponent</text>
</g>
<!-- LoginformComponent&#45;&gt;AppModule -->
<g id="edge24" class="edge">
<title>LoginformComponent&#45;&gt;AppModule</title>
<path fill="none" stroke="black" d="M3594,-198.05C3594,-212.37 3594,-230 3594,-230 3594,-230 3824.09,-230 3824.09,-230"/>
<polygon fill="black" stroke="black" points="3824.09,-233.5 3834.09,-230 3824.09,-226.5 3824.09,-233.5"/>
</g>
<!-- MainComponent -->
<g id="node25" class="node">
<title>MainComponent</title>
<polygon fill="#ffffb3" stroke="black" points="3505.38,-198 3394.62,-198 3394.62,-162 3505.38,-162 3505.38,-198"/>
<text text-anchor="middle" x="3450" y="-175.8" font-family="Times,serif" font-size="14.00">MainComponent</text>
</g>
<!-- MainComponent&#45;&gt;AppModule -->
<g id="edge25" class="edge">
<title>MainComponent&#45;&gt;AppModule</title>
<path fill="none" stroke="black" d="M3450,-198.19C3450,-213.18 3450,-232 3450,-232 3450,-232 3823.99,-232 3823.99,-232"/>
<polygon fill="black" stroke="black" points="3823.99,-235.5 3833.99,-232 3823.99,-228.5 3823.99,-235.5"/>
</g>
<!-- ManageClientsComponent -->
<g id="node26" class="node">
<title>ManageClientsComponent</title>
<polygon fill="#ffffb3" stroke="black" points="3377.09,-198 3210.91,-198 3210.91,-162 3377.09,-162 3377.09,-198"/>
<text text-anchor="middle" x="3294" y="-175.8" font-family="Times,serif" font-size="14.00">ManageClientsComponent</text>
</g>
<!-- ManageClientsComponent&#45;&gt;AppModule -->
<g id="edge26" class="edge">
<title>ManageClientsComponent&#45;&gt;AppModule</title>
<path fill="none" stroke="black" d="M3294,-198.24C3294,-213.57 3294,-233 3294,-233 3294,-233 3824.14,-233 3824.14,-233"/>
<polygon fill="black" stroke="black" points="3824.14,-236.5 3834.14,-233 3824.14,-229.5 3824.14,-236.5"/>
</g>
<!-- ManageStocksComponent -->
<g id="node27" class="node">
<title>ManageStocksComponent</title>
<polygon fill="#ffffb3" stroke="black" points="3192.75,-198 3029.25,-198 3029.25,-162 3192.75,-162 3192.75,-198"/>
<text text-anchor="middle" x="3111" y="-175.8" font-family="Times,serif" font-size="14.00">ManageStocksComponent</text>
</g>
<!-- ManageStocksComponent&#45;&gt;AppModule -->
<g id="edge27" class="edge">
<title>ManageStocksComponent&#45;&gt;AppModule</title>
<path fill="none" stroke="black" d="M3111,-198.01C3111,-214.05 3111,-235 3111,-235 3111,-235 3824.33,-235 3824.33,-235"/>
<polygon fill="black" stroke="black" points="3824.33,-238.5 3834.33,-235 3824.33,-231.5 3824.33,-238.5"/>
</g>
<!-- NewOrderComponent -->
<g id="node28" class="node">
<title>NewOrderComponent</title>
<polygon fill="#ffffb3" stroke="black" points="3011.4,-198 2870.6,-198 2870.6,-162 3011.4,-162 3011.4,-198"/>
<text text-anchor="middle" x="2941" y="-175.8" font-family="Times,serif" font-size="14.00">NewOrderComponent</text>
</g>
<!-- NewOrderComponent&#45;&gt;AppModule -->
<g id="edge28" class="edge">
<title>NewOrderComponent&#45;&gt;AppModule</title>
<path fill="none" stroke="black" d="M2941,-198.03C2941,-214.4 2941,-236 2941,-236 2941,-236 3824.31,-236 3824.31,-236"/>
<polygon fill="black" stroke="black" points="3824.31,-239.5 3834.31,-236 3824.31,-232.5 3824.31,-239.5"/>
</g>
<!-- NotFoundComponent -->
<g id="node29" class="node">
<title>NotFoundComponent</title>
<polygon fill="#ffffb3" stroke="black" points="2853.11,-198 2714.89,-198 2714.89,-162 2853.11,-162 2853.11,-198"/>
<text text-anchor="middle" x="2784" y="-175.8" font-family="Times,serif" font-size="14.00">NotFoundComponent</text>
</g>
<!-- NotFoundComponent&#45;&gt;AppModule -->
<g id="edge29" class="edge">
<title>NotFoundComponent&#45;&gt;AppModule</title>
<path fill="none" stroke="black" d="M2784,-198.03C2784,-215.06 2784,-238 2784,-238 2784,-238 3824.19,-238 3824.19,-238"/>
<polygon fill="black" stroke="black" points="3824.19,-241.5 3834.19,-238 3824.19,-234.5 3824.19,-241.5"/>
</g>
<!-- OrderDetailsComponent -->
<g id="node30" class="node">
<title>OrderDetailsComponent</title>
<polygon fill="#ffffb3" stroke="black" points="2696.63,-198 2543.37,-198 2543.37,-162 2696.63,-162 2696.63,-198"/>
<text text-anchor="middle" x="2620" y="-175.8" font-family="Times,serif" font-size="14.00">OrderDetailsComponent</text>
</g>
<!-- OrderDetailsComponent&#45;&gt;AppModule -->
<g id="edge30" class="edge">
<title>OrderDetailsComponent&#45;&gt;AppModule</title>
<path fill="none" stroke="black" d="M2620,-198.02C2620,-215.37 2620,-239 2620,-239 2620,-239 3824.21,-239 3824.21,-239"/>
<polygon fill="black" stroke="black" points="3824.21,-242.5 3834.21,-239 3824.21,-235.5 3824.21,-242.5"/>
</g>
<!-- OrdersComponent -->
<g id="node31" class="node">
<title>OrdersComponent</title>
<polygon fill="#ffffb3" stroke="black" points="2524.92,-198 2405.08,-198 2405.08,-162 2524.92,-162 2524.92,-198"/>
<text text-anchor="middle" x="2465" y="-175.8" font-family="Times,serif" font-size="14.00">OrdersComponent</text>
</g>
<!-- OrdersComponent&#45;&gt;AppModule -->
<g id="edge31" class="edge">
<title>OrdersComponent&#45;&gt;AppModule</title>
<path fill="none" stroke="black" d="M2465,-198.3C2465,-216.27 2465,-241 2465,-241 2465,-241 3824.15,-241 3824.15,-241"/>
<polygon fill="black" stroke="black" points="3824.15,-244.5 3834.15,-241 3824.15,-237.5 3824.15,-244.5"/>
</g>
<!-- OrdersInprogressComponent -->
<g id="node32" class="node">
<title>OrdersInprogressComponent</title>
<polygon fill="#ffffb3" stroke="black" points="2387.01,-198 2208.99,-198 2208.99,-162 2387.01,-162 2387.01,-198"/>
<text text-anchor="middle" x="2298" y="-175.8" font-family="Times,serif" font-size="14.00">OrdersInprogressComponent</text>
</g>
<!-- OrdersInprogressComponent&#45;&gt;AppModule -->
<g id="edge32" class="edge">
<title>OrdersInprogressComponent&#45;&gt;AppModule</title>
<path fill="none" stroke="black" d="M2298,-198.27C2298,-216.56 2298,-242 2298,-242 2298,-242 3824.2,-242 3824.2,-242"/>
<polygon fill="black" stroke="black" points="3824.2,-245.5 3834.2,-242 3824.2,-238.5 3824.2,-245.5"/>
</g>
<!-- ProductOrderComponent -->
<g id="node33" class="node">
<title>ProductOrderComponent</title>
<polygon fill="#ffffb3" stroke="black" points="2190.52,-198 2033.48,-198 2033.48,-162 2190.52,-162 2190.52,-198"/>
<text text-anchor="middle" x="2112" y="-175.8" font-family="Times,serif" font-size="14.00">ProductOrderComponent</text>
</g>
<!-- ProductOrderComponent&#45;&gt;AppModule -->
<g id="edge33" class="edge">
<title>ProductOrderComponent&#45;&gt;AppModule</title>
<path fill="none" stroke="black" d="M2112,-198.17C2112,-217.09 2112,-244 2112,-244 2112,-244 3824.14,-244 3824.14,-244"/>
<polygon fill="black" stroke="black" points="3824.14,-247.5 3834.14,-244 3824.14,-240.5 3824.14,-247.5"/>
</g>
<!-- QrproductinfoComponent -->
<g id="node34" class="node">
<title>QrproductinfoComponent</title>
<polygon fill="#ffffb3" stroke="black" points="2015.92,-198 1854.08,-198 1854.08,-162 2015.92,-162 2015.92,-198"/>
<text text-anchor="middle" x="1935" y="-175.8" font-family="Times,serif" font-size="14.00">QrproductinfoComponent</text>
</g>
<!-- QrproductinfoComponent&#45;&gt;AppModule -->
<g id="edge34" class="edge">
<title>QrproductinfoComponent&#45;&gt;AppModule</title>
<path fill="none" stroke="black" d="M1935,-198.11C1935,-217.34 1935,-245 1935,-245 1935,-245 3824.11,-245 3824.11,-245"/>
<polygon fill="black" stroke="black" points="3824.11,-248.5 3834.11,-245 3824.11,-241.5 3824.11,-248.5"/>
</g>
<!-- RegisterClientComponent -->
<g id="node35" class="node">
<title>RegisterClientComponent</title>
<polygon fill="#ffffb3" stroke="black" points="1836.21,-198 1673.79,-198 1673.79,-162 1836.21,-162 1836.21,-198"/>
<text text-anchor="middle" x="1755" y="-175.8" font-family="Times,serif" font-size="14.00">RegisterClientComponent</text>
</g>
<!-- RegisterClientComponent&#45;&gt;AppModule -->
<g id="edge35" class="edge">
<title>RegisterClientComponent&#45;&gt;AppModule</title>
<path fill="none" stroke="black" d="M1755,-198.31C1755,-218.15 1755,-247 1755,-247 1755,-247 3824.11,-247 3824.11,-247"/>
<polygon fill="black" stroke="black" points="3824.11,-250.5 3834.11,-247 3824.11,-243.5 3824.11,-250.5"/>
</g>
<!-- RegisterProductComponent -->
<g id="node36" class="node">
<title>RegisterProductComponent</title>
<polygon fill="#ffffb3" stroke="black" points="1655.53,-198 1484.47,-198 1484.47,-162 1655.53,-162 1655.53,-198"/>
<text text-anchor="middle" x="1570" y="-175.8" font-family="Times,serif" font-size="14.00">RegisterProductComponent</text>
</g>
<!-- RegisterProductComponent&#45;&gt;AppModule -->
<g id="edge36" class="edge">
<title>RegisterProductComponent&#45;&gt;AppModule</title>
<path fill="none" stroke="black" d="M1570,-198.22C1570,-218.37 1570,-248 1570,-248 1570,-248 3824.01,-248 3824.01,-248"/>
<polygon fill="black" stroke="black" points="3824.01,-251.5 3834.01,-248 3824.01,-244.5 3824.01,-251.5"/>
</g>
<!-- ResetpasswordComponent -->
<g id="node37" class="node">
<title>ResetpasswordComponent</title>
<polygon fill="#ffffb3" stroke="black" points="1466.8,-198 1301.2,-198 1301.2,-162 1466.8,-162 1466.8,-198"/>
<text text-anchor="middle" x="1384" y="-175.8" font-family="Times,serif" font-size="14.00">ResetpasswordComponent</text>
</g>
<!-- ResetpasswordComponent&#45;&gt;AppModule -->
<g id="edge37" class="edge">
<title>ResetpasswordComponent&#45;&gt;AppModule</title>
<path fill="none" stroke="black" d="M1384,-198.03C1384,-218.77 1384,-250 1384,-250 1384,-250 3824.31,-250 3824.31,-250"/>
<polygon fill="black" stroke="black" points="3824.31,-253.5 3834.31,-250 3824.31,-246.5 3824.31,-253.5"/>
</g>
<!-- SalesComponent -->
<g id="node38" class="node">
<title>SalesComponent</title>
<polygon fill="#ffffb3" stroke="black" points="1283.38,-198 1172.62,-198 1172.62,-162 1283.38,-162 1283.38,-198"/>
<text text-anchor="middle" x="1228" y="-175.8" font-family="Times,serif" font-size="14.00">SalesComponent</text>
</g>
<!-- SalesComponent&#45;&gt;AppModule -->
<g id="edge38" class="edge">
<title>SalesComponent&#45;&gt;AppModule</title>
<path fill="none" stroke="black" d="M1228,-198.28C1228,-219.32 1228,-251 1228,-251 1228,-251 3824.14,-251 3824.14,-251"/>
<polygon fill="black" stroke="black" points="3824.14,-254.5 3834.14,-251 3824.14,-247.5 3824.14,-254.5"/>
</g>
<!-- SalesHistoryComponent -->
<g id="node39" class="node">
<title>SalesHistoryComponent</title>
<polygon fill="#ffffb3" stroke="black" points="1154.37,-198 1001.63,-198 1001.63,-162 1154.37,-162 1154.37,-198"/>
<text text-anchor="middle" x="1078" y="-175.8" font-family="Times,serif" font-size="14.00">SalesHistoryComponent</text>
</g>
<!-- SalesHistoryComponent&#45;&gt;AppModule -->
<g id="edge39" class="edge">
<title>SalesHistoryComponent&#45;&gt;AppModule</title>
<path fill="none" stroke="black" d="M1078,-198.04C1078,-219.66 1078,-253 1078,-253 1078,-253 3824.28,-253 3824.28,-253"/>
<polygon fill="black" stroke="black" points="3824.28,-256.5 3834.28,-253 3824.28,-249.5 3824.28,-256.5"/>
</g>
<!-- SalesMenuComponent -->
<g id="node40" class="node">
<title>SalesMenuComponent</title>
<polygon fill="#ffffb3" stroke="black" points="983.54,-198 840.46,-198 840.46,-162 983.54,-162 983.54,-198"/>
<text text-anchor="middle" x="912" y="-175.8" font-family="Times,serif" font-size="14.00">SalesMenuComponent</text>
</g>
<!-- SalesMenuComponent&#45;&gt;AppModule -->
<g id="edge40" class="edge">
<title>SalesMenuComponent&#45;&gt;AppModule</title>
<path fill="none" stroke="black" d="M912,-198.29C912,-220.21 912,-254 912,-254 912,-254 3824.1,-254 3824.1,-254"/>
<polygon fill="black" stroke="black" points="3824.1,-257.5 3834.1,-254 3824.1,-250.5 3824.1,-257.5"/>
</g>
<!-- StocksComponent -->
<g id="node41" class="node">
<title>StocksComponent</title>
<polygon fill="#ffffb3" stroke="black" points="822.17,-198 703.83,-198 703.83,-162 822.17,-162 822.17,-198"/>
<text text-anchor="middle" x="763" y="-175.8" font-family="Times,serif" font-size="14.00">StocksComponent</text>
</g>
<!-- StocksComponent&#45;&gt;AppModule -->
<g id="edge41" class="edge">
<title>StocksComponent&#45;&gt;AppModule</title>
<path fill="none" stroke="black" d="M763,-198.01C763,-220.49 763,-256 763,-256 763,-256 3824.06,-256 3824.06,-256"/>
<polygon fill="black" stroke="black" points="3824.06,-259.5 3834.06,-256 3824.06,-252.5 3824.06,-259.5"/>
</g>
<!-- StocksHistoryComponent -->
<g id="node42" class="node">
<title>StocksHistoryComponent</title>
<polygon fill="#ffffb3" stroke="black" points="685.16,-198 524.84,-198 524.84,-162 685.16,-162 685.16,-198"/>
<text text-anchor="middle" x="605" y="-175.8" font-family="Times,serif" font-size="14.00">StocksHistoryComponent</text>
</g>
<!-- StocksHistoryComponent&#45;&gt;AppModule -->
<g id="edge42" class="edge">
<title>StocksHistoryComponent&#45;&gt;AppModule</title>
<path fill="none" stroke="black" d="M605,-198.25C605,-221.02 605,-257 605,-257 605,-257 3824.05,-257 3824.05,-257"/>
<polygon fill="black" stroke="black" points="3824.05,-260.5 3834.05,-257 3824.05,-253.5 3824.05,-260.5"/>
</g>
<!-- StocksMenuComponent -->
<g id="node43" class="node">
<title>StocksMenuComponent</title>
<polygon fill="#ffffb3" stroke="black" points="506.82,-198 355.18,-198 355.18,-162 506.82,-162 506.82,-198"/>
<text text-anchor="middle" x="431" y="-175.8" font-family="Times,serif" font-size="14.00">StocksMenuComponent</text>
</g>
<!-- StocksMenuComponent&#45;&gt;AppModule -->
<g id="edge43" class="edge">
<title>StocksMenuComponent&#45;&gt;AppModule</title>
<path fill="none" stroke="black" d="M431,-198.32C431,-221.66 431,-259 431,-259 431,-259 3824.3,-259 3824.3,-259"/>
<polygon fill="black" stroke="black" points="3824.3,-262.5 3834.3,-259 3824.3,-255.5 3824.3,-262.5"/>
</g>
<!-- UserDetailsComponent -->
<g id="node44" class="node">
<title>UserDetailsComponent</title>
<polygon fill="#ffffb3" stroke="black" points="337.91,-198 190.09,-198 190.09,-162 337.91,-162 337.91,-198"/>
<text text-anchor="middle" x="264" y="-175.8" font-family="Times,serif" font-size="14.00">UserDetailsComponent</text>
</g>
<!-- UserDetailsComponent&#45;&gt;AppModule -->
<g id="edge44" class="edge">
<title>UserDetailsComponent&#45;&gt;AppModule</title>
<path fill="none" stroke="black" d="M264,-198.15C264,-221.76 264,-260 264,-260 264,-260 3824.19,-260 3824.19,-260"/>
<polygon fill="black" stroke="black" points="3824.19,-263.5 3834.19,-260 3824.19,-256.5 3824.19,-263.5"/>
</g>
<!-- ViewStocksComponent -->
<g id="node45" class="node">
<title>ViewStocksComponent</title>
<polygon fill="#ffffb3" stroke="black" points="172.48,-198 23.52,-198 23.52,-162 172.48,-162 172.48,-198"/>
<text text-anchor="middle" x="98" y="-175.8" font-family="Times,serif" font-size="14.00">ViewStocksComponent</text>
</g>
<!-- ViewStocksComponent&#45;&gt;AppModule -->
<g id="edge45" class="edge">
<title>ViewStocksComponent&#45;&gt;AppModule</title>
<path fill="none" stroke="black" d="M98,-198.2C98,-222.36 98,-262 98,-262 98,-262 3824.22,-262 3824.22,-262"/>
<polygon fill="black" stroke="black" points="3824.22,-265.5 3834.22,-262 3824.22,-258.5 3824.22,-265.5"/>
</g>
<!-- AppComponent  -->
<g id="node49" class="node">
<title>AppComponent </title>
<polygon fill="#80b1d3" stroke="black" points="3930.44,-328 3821.56,-328 3821.56,-292 3930.44,-292 3930.44,-328"/>
<text text-anchor="middle" x="3876" y="-305.8" font-family="Times,serif" font-size="14.00">AppComponent </text>
</g>
<!-- AppModule&#45;&gt;AppComponent  -->
<g id="edge48" class="edge">
<title>AppModule&#45;&gt;AppComponent </title>
<path fill="none" stroke="black" stroke-dasharray="1,5" d="M3876,-263.11C3876,-263.11 3876,-281.99 3876,-281.99"/>
<polygon fill="black" stroke="black" points="3872.5,-281.99 3876,-291.99 3879.5,-281.99 3872.5,-281.99"/>
</g>
<!-- AppRoutingModule -->
<g id="node47" class="node">
<title>AppRoutingModule</title>
<polygon fill="#8dd3c7" stroke="black" points="7758.27,-198 7755.27,-202 7734.27,-202 7731.27,-198 7629.73,-198 7629.73,-162 7758.27,-162 7758.27,-198"/>
<text text-anchor="middle" x="7694" y="-175.8" font-family="Times,serif" font-size="14.00">AppRoutingModule</text>
</g>
<!-- AppRoutingModule&#45;&gt;AppModule -->
<g id="edge46" class="edge">
<title>AppRoutingModule&#45;&gt;AppModule</title>
<path fill="none" stroke="black" d="M7694,-198.2C7694,-222.36 7694,-262 7694,-262 7694,-262 3927.9,-262 3927.9,-262"/>
<polygon fill="black" stroke="black" points="3927.9,-258.5 3917.9,-262 3927.9,-265.5 3927.9,-258.5"/>
</g>
<!-- MaterialModule -->
<g id="node48" class="node">
<title>MaterialModule</title>
<polygon fill="#8dd3c7" stroke="black" points="7611.47,-198 7608.47,-202 7587.47,-202 7584.47,-198 7504.53,-198 7504.53,-162 7611.47,-162 7611.47,-198"/>
<text text-anchor="middle" x="7558" y="-175.8" font-family="Times,serif" font-size="14.00">MaterialModule</text>
</g>
<!-- MaterialModule&#45;&gt;AppModule -->
<g id="edge47" class="edge">
<title>MaterialModule&#45;&gt;AppModule</title>
<path fill="none" stroke="black" d="M7558,-198.15C7558,-221.76 7558,-260 7558,-260 7558,-260 3927.67,-260 3927.67,-260"/>
<polygon fill="black" stroke="black" points="3927.67,-256.5 3917.67,-260 3927.67,-263.5 3927.67,-256.5"/>
</g>
<!-- AuthInterceptor -->
<g id="node50" class="node">
<title>AuthInterceptor</title>
<ellipse fill="#fdb462" stroke="black" cx="7694" cy="-104" rx="72.91" ry="18"/>
<text text-anchor="middle" x="7694" y="-99.8" font-family="Times,serif" font-size="14.00">AuthInterceptor</text>
</g>
<!-- AuthInterceptor&#45;&gt;AppRoutingModule -->
<g id="edge49" class="edge">
<title>AuthInterceptor&#45;&gt;AppRoutingModule</title>
<path fill="none" stroke="black" d="M7694,-122.01C7694,-122.01 7694,-151.85 7694,-151.85"/>
<polygon fill="black" stroke="black" points="7690.5,-151.85 7694,-161.85 7697.5,-151.85 7690.5,-151.85"/>
</g>
</g>
</svg>
